# xmcd CD database file
#
# Track frame offsets:
#	150
#	10640
#	24900
#	39500
#	53505
#	65030
#	78440
#	91905
#	110480
#	126127
#	140352
#	162345
#	175902
#	191027
#	206657
#	220532
#	236730
#	262227
#	275405
#	289882
#	305170
#	308822
#	317560
#	327577
#
# Disc length: 4621 seconds
#
# Revision: 2
# Processed by: cddbd v1.5.2PL0 Copyright (c) Steve Scherf et al.
# Submitted via: CDex 1.79
#
DISCID=5e120b18
DTITLE=Tompall Glaser - Another Log On The Fire - Hillbilly Central #2
DYEAR=2006
DGENRE=Country
TTITLE0=I Ain't Lookin' For The Answer Anymore
TTITLE1=Roll On
TTITLE2=Mendocino
TTITLE3=Country Gospel Good Book Rock 'n' Roll
TTITLE4=Put Another Log On The Fire
TTITLE5=Musical Chairs
TTITLE6=Grab A Hold
TTITLE7=Echoes
TTITLE8=Old New Orleans Custom
TTITLE9=If I'm There
TTITLE10=Oleander
TTITLE11=The Wild Side Of Life
TTITLE12=We Live In Two Different Worlds
TTITLE13=I Can't Remember
TTITLE14=When It Goes, Its Gone Girl
TTITLE15=The Hunger
TTITLE16=Time Changes Everything
TTITLE17=If I'd Only Come And Gone
TTITLE18=Good Hearted Woman
TTITLE19=West Canterbury Subdivision Blues
TTITLE20=Tompall In 'D' On The Ukulele (instrumental)
TTITLE21=Broken Down Mama
TTITLE22=Loving You Again
TTITLE23=T For Texas
EXTD=YEAR: 2006
EXTT0=
EXTT1=
EXTT2=
EXTT3=
EXTT4=
EXTT5=
EXTT6=
EXTT7=
EXTT8=
EXTT9=
EXTT10=
EXTT11=
EXTT12=
EXTT13=
EXTT14=
EXTT15=
EXTT16=
EXTT17=
EXTT18=
EXTT19=
EXTT20=
EXTT21=
EXTT22=
EXTT23=
PLAYORDER=
